<?xml version="1.0" encoding="utf-8"?>
<!-- Generator: Adobe Illustrator 16.0.0, SVG Export Plug-In . SVG Version: 6.00 Build 0)  -->
<!DOCTYPE svg PUBLIC "-//W3C//DTD SVG 1.1//EN" "http://www.w3.org/Graphics/SVG/1.1/DTD/svg11.dtd">
<svg version="1.1" id="Layer_2" xmlns="http://www.w3.org/2000/svg" xmlns:xlink="http://www.w3.org/1999/xlink" x="0px" y="0px"
	 width="220px" height="270px" viewBox="0 0 220 270" enable-background="new 0 0 220 270" xml:space="preserve">
<g>
	<polygon fill-rule="evenodd" clip-rule="evenodd" fill="#201C4D" points="33.273,268.723 44.37,268.723 44.37,220.87 
		34.872,220.87 21.675,228.927 21.718,240.572 33.273,234.773 	"/>
	<rect x="97.501" y="245.578" fill-rule="evenodd" clip-rule="evenodd" fill="#201C4D" width="23.29" height="9.241"/>
	<path fill-rule="evenodd" clip-rule="evenodd" fill="#201C4D" d="M124.657,268.604h34.452v-9.898h-17.05
		c13.053-13.377,17.051-15.501,17.051-24.676c0-5.885-6.326-14.037-17.518-14.037c-16.584,0-17.418,15.617-17.418,15.617
		l10.385,1.969c0,0,2.157-7.562,7.275-7.562c2.622,0,5.646,1.753,5.646,5.465c0,5.746-22.823,24.598-22.823,24.598V268.604z"/>
	<polygon fill-rule="evenodd" clip-rule="evenodd" fill="#211A4D" points="168.297,268.84 180.761,268.84 196.489,231.332 
		196.489,221.155 162.714,221.155 162.714,231.332 183.816,231.332 	"/>
	<path fill="#211A4D" d="M75.931,238.345c-7.941,0-12.875,3.602-12.875,3.602s0.714-11.908,8.259-11.883
		c4.255,0.015,7.721,3.642,7.721,3.642l11.121-2.836c0,0-6.164-10.876-18.842-10.876c-11.147,0-19.396,12.131-19.396,23.841
		C51.981,264.193,62.695,270,72.047,270c10.863,0,18.11-6.345,18.11-16.654C90.157,243.631,83.873,238.345,75.931,238.345z
		 M72.047,260.334c-3.86,0-6.989-3.129-6.989-6.988c0-3.86,3.129-6.989,6.989-6.989s6.989,3.129,6.989,6.989
		C79.036,257.205,75.907,260.334,72.047,260.334z"/>
</g>
<g>
	<path fill="#201C4D" d="M109.236,88.271c-12.576,0-22.808,10.231-22.808,22.808s10.231,22.808,22.808,22.808
		c12.576,0,22.807-10.231,22.807-22.808S121.812,88.271,109.236,88.271z"/>
	<path fill="#201C4D" d="M197.968,108.06H220C218.422,49.343,170.943,1.873,112.222,0.312v22.015
		C158.809,23.874,196.401,61.478,197.968,108.06z"/>
	<path fill="#37BCC4" d="M20.428,111.078c0,48.969,39.839,88.808,88.808,88.808c47.704,0,86.738-37.81,88.721-85.035H175.93
		c-1.964,35.089-31.123,63.035-66.694,63.035c-36.838,0-66.808-29.97-66.808-66.808c0-35.555,27.92-64.703,62.986-66.691V22.358
		C58.212,24.367,20.428,63.39,20.428,111.078z"/>
	<path fill="#201C4D" d="M137.376,76.244c0.449,0.364,0.889,0.739,1.324,1.119c0.096,0.084,0.194,0.167,0.29,0.252
		c0.4,0.356,0.792,0.723,1.18,1.093c0.123,0.118,0.247,0.233,0.369,0.352c0.359,0.352,0.711,0.712,1.06,1.077
		c0.14,0.146,0.281,0.292,0.42,0.44c0.325,0.349,0.643,0.706,0.956,1.065c0.151,0.173,0.304,0.346,0.452,0.521
		c0.294,0.347,0.581,0.7,0.864,1.056c0.158,0.198,0.315,0.396,0.47,0.597c0.266,0.346,0.525,0.696,0.781,1.049
		c0.16,0.221,0.319,0.444,0.476,0.668c0.239,0.344,0.475,0.691,0.704,1.042c0.16,0.244,0.317,0.489,0.473,0.736
		c0.216,0.343,0.427,0.688,0.634,1.038c0.155,0.264,0.308,0.529,0.458,0.796c0.194,0.343,0.385,0.688,0.569,1.037
		c0.149,0.283,0.294,0.568,0.438,0.854c0.173,0.342,0.343,0.686,0.506,1.033c0.143,0.302,0.278,0.607,0.413,0.912
		c0.151,0.341,0.302,0.683,0.445,1.028c0.133,0.32,0.257,0.644,0.382,0.968c0.132,0.339,0.264,0.678,0.387,1.021
		c0.121,0.338,0.233,0.681,0.347,1.023c0.111,0.337,0.226,0.674,0.329,1.015c0.108,0.355,0.206,0.715,0.307,1.075
		c0.093,0.335,0.188,0.668,0.273,1.005c0.095,0.376,0.178,0.756,0.263,1.135c0.074,0.329,0.152,0.655,0.219,0.986
		c0.08,0.399,0.146,0.803,0.216,1.205c0.055,0.318,0.116,0.634,0.164,0.955c0.064,0.429,0.113,0.863,0.165,1.295
		c0.036,0.3,0.08,0.599,0.11,0.9c0.048,0.485,0.079,0.976,0.111,1.465h22.039c-1.541-34.451-29.292-62.19-63.747-63.714v22.035
		c0.005,0,0.01,0.001,0.015,0.001c9.408,0.625,18.028,4.165,24.968,9.726C137.261,76.154,137.319,76.198,137.376,76.244z"/>
	<g>
		<path fill="#37BCC4" d="M86.428,111.078c0-12.576,10.231-22.808,22.808-22.808c11.552,0,21.12,8.636,22.601,19.79h22.093
			c-0.032-0.49-0.063-0.98-0.111-1.465c-0.03-0.302-0.074-0.6-0.11-0.9c-0.052-0.433-0.101-0.867-0.165-1.295
			c-0.048-0.32-0.109-0.636-0.164-0.955c-0.069-0.402-0.136-0.806-0.216-1.205c-0.066-0.331-0.145-0.658-0.219-0.986
			c-0.085-0.379-0.168-0.759-0.263-1.135c-0.085-0.337-0.181-0.67-0.273-1.005c-0.101-0.359-0.198-0.719-0.307-1.075
			c-0.104-0.341-0.218-0.678-0.329-1.015c-0.113-0.342-0.226-0.685-0.347-1.023c-0.123-0.343-0.255-0.682-0.387-1.021
			c-0.125-0.324-0.25-0.648-0.382-0.968c-0.144-0.346-0.294-0.687-0.445-1.028c-0.135-0.305-0.271-0.61-0.413-0.912
			c-0.163-0.347-0.333-0.69-0.506-1.033c-0.144-0.286-0.288-0.572-0.438-0.854c-0.185-0.349-0.375-0.693-0.569-1.037
			c-0.15-0.267-0.303-0.533-0.458-0.796c-0.207-0.349-0.418-0.694-0.634-1.038c-0.155-0.247-0.312-0.492-0.473-0.736
			c-0.229-0.351-0.465-0.699-0.704-1.042c-0.156-0.224-0.315-0.447-0.476-0.668c-0.256-0.353-0.516-0.704-0.781-1.049
			c-0.154-0.2-0.312-0.398-0.47-0.597c-0.283-0.355-0.57-0.709-0.864-1.056c-0.148-0.175-0.301-0.348-0.452-0.521
			c-0.313-0.359-0.631-0.716-0.956-1.065c-0.139-0.148-0.28-0.294-0.42-0.44c-0.349-0.364-0.7-0.725-1.06-1.077
			c-0.122-0.119-0.246-0.234-0.369-0.352c-0.388-0.37-0.779-0.737-1.18-1.093c-0.096-0.085-0.194-0.167-0.29-0.252
			c-0.436-0.38-0.875-0.756-1.324-1.119c-0.057-0.046-0.115-0.09-0.172-0.136c-6.94-5.558-15.561-9.101-24.968-9.726
			c-0.993-0.066-1.991-0.112-3-0.112c-1.289,0-2.561,0.067-3.822,0.174c-0.706,0.06-1.407,0.137-2.103,0.229
			c-0.017,0.002-0.034,0.004-0.05,0.006c-0.685,0.092-1.364,0.2-2.039,0.322c-0.027,0.005-0.053,0.009-0.08,0.014
			c-0.667,0.123-1.33,0.26-1.986,0.412c-0.032,0.007-0.064,0.015-0.096,0.022c-0.654,0.152-1.303,0.319-1.945,0.5
			c-0.031,0.009-0.062,0.018-0.092,0.026c-0.645,0.183-1.284,0.379-1.917,0.59c-0.025,0.008-0.049,0.017-0.074,0.025
			c-0.639,0.214-1.271,0.441-1.897,0.683c-0.014,0.005-0.027,0.011-0.041,0.016c-6.37,2.468-12.037,6.354-16.619,11.264
			c-0.058,0.062-0.118,0.122-0.175,0.184c-0.36,0.39-0.708,0.791-1.055,1.194c-0.112,0.13-0.227,0.257-0.337,0.388
			c-0.308,0.367-0.605,0.743-0.902,1.12c-0.139,0.176-0.28,0.351-0.416,0.529c-0.27,0.353-0.53,0.714-0.789,1.075
			c-0.151,0.211-0.304,0.421-0.451,0.635c-0.239,0.346-0.47,0.698-0.7,1.05c-0.155,0.239-0.311,0.478-0.461,0.72
			c-0.212,0.34-0.418,0.686-0.622,1.032c-0.155,0.264-0.309,0.528-0.458,0.796c-0.188,0.337-0.372,0.678-0.552,1.021
			c-0.15,0.285-0.298,0.571-0.441,0.86c-0.167,0.336-0.331,0.674-0.49,1.015c-0.143,0.305-0.281,0.612-0.417,0.921
			c-0.146,0.333-0.291,0.668-0.429,1.005c-0.133,0.324-0.261,0.652-0.387,0.98c-0.127,0.332-0.253,0.665-0.373,1
			c-0.122,0.341-0.236,0.685-0.35,1.03c-0.109,0.331-0.218,0.662-0.319,0.997c-0.108,0.358-0.208,0.72-0.308,1.083
			c-0.09,0.328-0.183,0.656-0.266,0.987c-0.095,0.376-0.178,0.757-0.263,1.137c-0.072,0.324-0.148,0.647-0.213,0.974
			c-0.08,0.397-0.146,0.799-0.215,1.2c-0.054,0.316-0.113,0.63-0.161,0.948c-0.064,0.428-0.113,0.86-0.165,1.292
			c-0.036,0.297-0.078,0.592-0.107,0.891c-0.049,0.487-0.08,0.979-0.112,1.471c-0.017,0.248-0.042,0.494-0.054,0.743
			c-0.037,0.744-0.057,1.492-0.057,2.245c0,23.419,18.062,42.687,40.986,44.634v-22.153
			C94.652,131.735,86.428,122.352,86.428,111.078z"/>
	</g>
</g>
</svg>
