<?xml version="1.0" encoding="utf-8"?>
<!-- Generator: Adobe Illustrator 16.0.0, SVG Export Plug-In . SVG Version: 6.00 Build 0)  -->
<!DOCTYPE svg PUBLIC "-//W3C//DTD SVG 1.1//EN" "http://www.w3.org/Graphics/SVG/1.1/DTD/svg11.dtd">
<svg version="1.1" id="Layer_2" xmlns="http://www.w3.org/2000/svg" xmlns:xlink="http://www.w3.org/1999/xlink" x="0px" y="0px"
	 width="241.096px" height="241.096px" viewBox="0 0 241.096 241.096" style="enable-background:new 0 0 241.096 241.096;"
	 xml:space="preserve">
<path style="fill:#FFFFFF;" d="M120.548,0C53.971,0,0,53.971,0,120.548c0,66.576,53.971,120.547,120.548,120.547
	s120.548-53.972,120.548-120.547C241.096,53.971,187.125,0,120.548,0z"/>
<g>
	<path style="fill:none;" d="M120.548,19C64.554,19,19,64.554,19,120.548c0,55.994,45.554,101.547,101.548,101.547
		s101.548-45.554,101.548-101.547C222.096,64.554,176.542,19,120.548,19z"/>
	<path style="fill:#E4453A;" d="M120.548,0C53.971,0,0,53.971,0,120.548c0,66.576,53.971,120.547,120.548,120.547
		s120.548-53.972,120.548-120.547C241.096,53.971,187.125,0,120.548,0z M120.548,222.096C64.554,222.096,19,176.542,19,120.548
		C19,64.554,64.554,19,120.548,19s101.548,45.554,101.548,101.548C222.096,176.542,176.542,222.096,120.548,222.096z"/>
</g>
</svg>
