<?xml version="1.0" encoding="utf-8"?>
<!-- Generator: Adobe Illustrator 16.0.0, SVG Export Plug-In . SVG Version: 6.00 Build 0)  -->
<!DOCTYPE svg PUBLIC "-//W3C//DTD SVG 1.1//EN" "http://www.w3.org/Graphics/SVG/1.1/DTD/svg11.dtd">
<svg version="1.1" id="Layer_2" xmlns="http://www.w3.org/2000/svg" xmlns:xlink="http://www.w3.org/1999/xlink" x="0px" y="0px"
	 width="241.096px" height="241.096px" viewBox="0 0 241.096 241.096" enable-background="new 0 0 241.096 241.096"
	 xml:space="preserve">
<path fill="#FFFFFF" d="M120.548,0C53.971,0,0,53.971,0,120.548c0,66.576,53.971,120.547,120.548,120.547
	s120.548-53.972,120.548-120.547C241.096,53.971,187.125,0,120.548,0z"/>
<g>
	<path opacity="0.5" fill="#008390" d="M120.548,15.048c-58.175,0-105.5,47.325-105.5,105.5c0,58.171,47.325,105.499,105.5,105.499
		c58.171,0,105.5-47.329,105.5-105.499C226.048,62.373,178.719,15.048,120.548,15.048z"/>
	<path fill="#008390" d="M120.548,0C53.971,0,0,53.971,0,120.548c0,66.576,53.971,120.547,120.548,120.547
		s120.548-53.972,120.548-120.547C241.096,53.971,187.125,0,120.548,0z M120.548,222.096C64.554,222.096,19,176.542,19,120.548
		S64.554,19,120.548,19s101.548,45.554,101.548,101.548S176.542,222.096,120.548,222.096z"/>
</g>
</svg>
